#!OML:ASF Y:\EmotionMaleHayes\Project 1\Capture day 1\Session 1\Male1.ASF
:FULLY-SPECIFIED
:DEGREES
1598
root 11.5251 16.2931 11.6069 540.891 4.88164 180.989
lowerback 7.75246 1.44259 3.9399
upperback 3.33996 2.4474 0.173287
thorax -0.736606 1.36024 -2.23117
lowerneck -21.8287 2.33369 1.89877
upperneck 28.3623 1.3632 0.931693
head 13.1827 0.581501 0.197341
rclavicle -1.963e-014 -2.08724e-014
rhumerus -25.8638 21.2685 -94.3108
rradius 54.5928
rwrist -2.22883
rhand -11.5869 -28.8734
rfingers 7.12502
rthumb 14.4551 -58.35
lclavicle -1.963e-014 -2.08724e-014
lhumerus -37.5788 11.1647 75.3738
lradius 19.9332
lwrist -32.6883
lhand -12.0708 -25.4604
lfingers 7.12502
lthumb 13.9888 4.04892
rfemur 22.28 9.3261 27.4219
rtibia 10.3496
rfoot -18.0338 19.9571
rtoes 32.8373
lfemur -22.7848 1.14481 -8.59321
ltibia 15.9298
lfoot -1.79369 4.04238
ltoes -3.42905
1599
root 11.4863 16.2903 11.4664 540.879 4.96394 180.701
lowerback 7.73816 1.51689 3.40974
upperback 3.27447 2.49686 0.036428
thorax -0.810134 1.3747 -2.08042
lowerneck -21.9969 2.32662 2.01688
upperneck 28.5056 1.28688 0.948212
head 13.2788 0.561076 0.171783
rclavicle 5.76476e-015 -1.59028e-015
rhumerus -26.0416 19.9152 -94.173
rradius 53.5717
rwrist -1.77368
rhand -11.5969 -28.5563
rfingers 7.12502
rthumb 14.4454 -58.0335
lclavicle 5.76476e-015 -1.59028e-015
lhumerus -36.871 10.7097 75.4688
lradius 19.7667
lwrist -31.7678
lhand -13.7694 -25.4054
lfingers 7.12502
lthumb 12.3514 4.20973
rfemur 22.5237 9.48605 26.9851
rtibia 10.796
rfoot -17.8145 19.8082
rtoes 30.8992
lfemur -23.3764 0.619979 -9.05996
ltibia 17.6919
lfoot -1.76941 3.43064
ltoes -1.52812
1600
root 11.4454 16.2925 11.3249 540.871 4.92839 180.69
lowerback 7.79547 1.47319 3.24208
upperback 3.15856 2.4182 -0.0716801
thorax -0.968434 1.32587 -2.09678
lowerneck -21.9099 2.35617 2.31729
upperneck 28.505 1.23269 0.870331
head 13.2652 0.555709 0.0792235
rclavicle -1.39149e-015 7.55382e-015
rhumerus -26.2884 18.5354 -94.2211
rradius 52.4044
rwrist -1.23371
rhand -11.9727 -28.5165
rfingers 7.12502
rthumb 14.0833 -58.0193
lclavicle -1.39149e-015 7.55382e-015
lhumerus -36.2024 10.4979 75.241
lradius 19.8265
lwrist -31.9456
lhand -13.1441 -25.2022
lfingers 7.12502
lthumb 12.9543 4.37565
rfemur 22.7693 9.81825 27.0197
rtibia 11.2927
rfoot -17.2172 19.5781
rtoes 30.7395
lfemur -24.0345 0.288918 -9.2387
ltibia 19.5377
lfoot -1.94012 2.96782
ltoes -0.869533
1601
root 11.3952 16.2989 11.1817 540.838 4.81441 180.854
lowerback 7.83053 1.3865 3.33766
upperback 3.09468 2.30763 -0.07213
thorax -1.05636 1.26697 -2.14471
lowerneck -21.821 2.36261 2.52948
upperneck 28.5046 1.23156 0.645263
head 13.2509 0.543803 -0.0464317
rclavicle 6.68413e-015 -9.14409e-015
rhumerus -26.6498 17.5704 -94.1853
rradius 51.3276
rwrist -1.15098
rhand -12.7478 -28.9385
rfingers 7.12502
rthumb 13.3363 -58.4918
lclavicle 6.68413e-015 -9.14409e-015
lhumerus -35.4718 10.6265 75.1131
lradius 19.915
lwrist -32.2772
lhand -11.8859 -25.3359
lfingers 7.12502
lthumb 14.167 4.16106
rfemur 23.0126 10.3707 27.4352
rtibia 11.995
rfoot -16.5679 19.076
rtoes 31.5247
lfemur -24.5544 -0.376673 -9.2772
ltibia 21.2476
lfoot -2.26151 3.22733
ltoes -3.74958
1602
root 11.3401 16.3129 11.0261 540.696 4.79232 180.946
lowerback 7.81858 1.48197 3.45174
upperback 3.12097 2.44349 -0.12784
thorax -1.00687 1.33811 -2.27583
lowerneck -21.9413 2.23421 2.5225
upperneck 28.5393 1.01832 0.727146
head 13.288 0.462761 -0.0497563
rclavicle 1.32937e-014 -1.59028e-015
rhumerus -26.9418 15.8931 -93.977
rradius 50.1414
rwrist -0.922278
rhand -13.3332 -29.0888
rfingers 7.12502
rthumb 12.772 -58.6781
lclavicle 1.32937e-014 -1.59028e-015
lhumerus -34.5469 10.3954 75.2064
lradius 19.9667
lwrist -32.4569
lhand -11.2867 -25.5318
lfingers 7.12502
lthumb 14.7443 3.92381
rfemur 23.3346 10.7878 27.6501
rtibia 12.7238
rfoot -15.8506 18.7012
rtoes 30.8963
lfemur -24.6275 -1.18088 -9.46136
ltibia 22.5865
lfoot -2.7519 4.11428
ltoes -8.69432
1603
root 11.2871 16.3273 10.8548 540.502 5.09465 180.886
lowerback 7.70506 1.73401 3.3363
upperback 3.19439 2.76654 -0.245931
thorax -0.847147 1.50476 -2.35154
lowerneck -22.1326 2.04149 2.33893
upperneck 28.5234 0.672389 1.14575
head 13.3157 0.354758 0.0862325
rclavicle -2.87741e-014 4.67144e-015
rhumerus -27.2248 13.8221 -93.606
rradius 48.889
rwrist -0.43073
rhand -13.4859 -28.9376
rfingers 7.12502
rthumb 12.6248 -58.536
lclavicle -2.87741e-014 4.67144e-015
lhumerus -33.5489 9.75424 75.468
lradius 20.0309
lwrist -32.5697
lhand -11.2788 -25.262
lfingers 7.12502
lthumb 14.7519 4.19303
rfemur 23.6764 11.1463 27.4845
rtibia 13.4738
rfoot -14.7755 18.7772
rtoes 30.3551
lfemur -24.2536 -1.54659 -9.83543
ltibia 23.5346
lfoot -3.25636 5.04394
ltoes -13.4953
1604
root 11.2344 16.3388 10.6838 540.428 5.30372 180.912
lowerback 7.52461 1.87314 3.23754
upperback 3.19122 2.93377 -0.275548
thorax -0.743282 1.58782 -2.33137
lowerneck -22.2185 1.93806 2.3306
upperneck 28.6073 0.483236 1.23196
head 13.3679 0.28137 0.0879314
rclavicle -4.47266e-016 1.26228e-014
rhumerus -27.7438 12.3686 -93.1871
rradius 47.8024
rwrist -0.145531
rhand -13.7396 -29.393
rfingers 7.12502
rthumb 12.3802 -59.0064
lclavicle -4.47266e-016 1.26228e-014
lhumerus -32.8812 9.76383 75.6513
lradius 20.2862
lwrist -32.8528
lhand -11.6304 -24.3645
lfingers 7.12502
lthumb 14.4132 5.11501
rfemur 23.8259 11.5455 27.3942
rtibia 14.488
rfoot -13.3948 19.1062
rtoes 32.2539
lfemur -23.9068 -1.75169 -10.1067
ltibia 24.3038
lfoot -3.73916 5.38787
ltoes -14.7734
1605
root 11.1802 16.3578 10.5266 540.502 5.34364 181.884
lowerback 7.52622 1.84984 4.15487
upperback 3.04802 2.96552 -0.0193651
thorax -0.855785 1.60129 -2.58663
lowerneck -22.0891 1.94656 2.34521
upperneck 28.7008 0.462803 1.24966
head 13.3803 0.268167 0.086354
rclavicle -2.17421e-015 -3.72721e-015
rhumerus -28.3743 11.0279 -92.776
rradius 46.6656
rwrist 0.142437
rhand -14.2949 -30.3317
rfingers 7.12502
rthumb 11.8448 -59.9767
lclavicle -2.17421e-015 -3.72721e-015
lhumerus -32.5821 10.9313 75.4601
lradius 20.7084
lwrist -34.2118
lhand -11.7783 -23.2076
lfingers 7.12502
lthumb 14.2706 6.28208
rfemur 23.4604 11.2388 28.1586
rtibia 15.7375
rfoot -12.2082 19.1947
rtoes 31.5615
lfemur -23.7531 -1.70769 -9.18197
ltibia 25.1037
lfoot -4.198 5.03727
ltoes -11.9418
1606
root 11.1315 16.3817 10.3743 540.499 5.67888 182.796
lowerback 7.70347 1.94322 4.9311
upperback 2.90189 3.16077 0.237
thorax -1.06169 1.69373 -2.78277
lowerneck -22.0786 1.92405 2.3609
upperneck 28.9128 0.445783 1.09066
head 13.4672 0.231203 0.0161696
rclavicle 8.70925e-015 3.03147e-015
rhumerus -28.7539 8.78058 -92.1928
rradius 45.1027
rwrist 0.952337
rhand -14.1773 -30.5323
rfingers 7.12502
rthumb 11.9582 -60.1707
lclavicle 8.70925e-015 3.03147e-015
lhumerus -32.046 10.7042 75.6969
lradius 21.1632
lwrist -34.4808
lhand -11.3901 -22.9426
lfingers 7.12502
lthumb 14.6447 6.52028
rfemur 23.1295 11.5453 29.1891
rtibia 17.2114
rfoot -10.7812 18.7361
rtoes 31.9336
lfemur -23.2674 -1.46415 -8.25138
ltibia 25.6018
lfoot -4.70272 4.84312
ltoes -9.06784
1607
root 11.0906 16.3991 10.2037 540.12 5.99157 181.893
lowerback 7.80247 2.16066 3.74086
upperback 2.91206 3.35769 0.0569964
thorax -1.14879 1.78221 -2.32398
lowerneck -22.0834 1.81991 2.35181
upperneck 29.0258 0.361344 0.859037
head 13.5148 0.156347 -0.0898723
rclavicle 3.11843e-014 -9.39258e-015
rhumerus -29.5505 8.18699 -91.7348
rradius 44.1192
rwrist 0.0303024
rhand -14.5015 -31.0499
rfingers 7.12502
rthumb 11.6455 -60.7062
lclavicle 3.11843e-014 -9.39258e-015
lhumerus -31.2142 8.56846 76.6573
lradius 21.9378
lwrist -32.0859
lhand -10.3843 -22.789
lfingers 7.12502
lthumb 15.6136 6.60085
rfemur 23.3453 11.924 28.236
rtibia 18.3926
rfoot -9.48577 18.1535
rtoes 30.8214
lfemur -22.1513 -1.70447 -9.62361
ltibia 25.6057
lfoot -5.47413 4.94527
ltoes -7.14969
